<svg id="Capa_1" enable-background="new 0 0 512.052 512.052" height="512" viewBox="0 0 512.052 512.052" width="512" xmlns="http://www.w3.org/2000/svg"><g><path d="m497.038 196.429c-59.751 0-78.398-60.8-165.847-60.8-27.634 0-52.86 8.643-75.165 25.724-22.315-17.085-47.535-25.729-75.145-25.729-87.063 0-106.206 60.806-165.868 60.806-13.542 0-20.14 16.598-10.303 25.895 34.29 68.21 84.485 154.104 161.315 154.104 4.673 0 9.493-.274 14.326-.814 50.049-5.598 101.017-5.597 151.484.004 4.785.531 9.56.8 14.189.8 76.977 0 127.353-86.319 161.334-154.121 9.856-9.362 3.127-25.869-10.32-25.869zm-316.157-30.806c24.12 0 45.986 8.866 64.99 26.352 5.741 5.283 14.575 5.282 20.316-.003 18.985-17.48 40.855-26.343 65.003-26.343 57.328 0 78.432 32.149 117.575 50.194-27.645 9.357-48.076 9.939-79.718 10.001-31.418.06-49.17 10.211-80.164 19.187-21.456 6.955-44.113 6.868-65.515-.251-22.778-6.277-46.082-19.924-83.987-16.723-21.531 1.818-47.05 3.975-80.944-10.12 42.105-17.317 63.113-52.294 122.444-52.294zm165.144 180.796c-3.529 0-7.19-.208-10.882-.617-52.672-5.845-105.874-5.846-158.126-.001-3.73.417-7.429.629-10.992.629-48.78 0-87.712-52.712-113.949-98.7 37.865 14.586 66.943 12.134 89.831 10.201 30.083-2.545 48.52 8.661 71.994 15.296 27.496 9.145 56.625 9.272 84.233.323 32.964-9.711 46.026-17.676 70.973-17.725 38.105-.075 61.85-1.52 93.648-13.022-26.229 47.054-66.193 103.616-116.73 103.616z" fill="#4086e0"/></g></svg>