<svg height="384pt" viewBox="0 0 384 384" width="384pt" xmlns="http://www.w3.org/2000/svg"><path d="m96.3125 298.800781.007812 12.960938c0 20.007812 12.246094 38.972656 34.511719 53.4375 17.945313 11.601562 40.792969 18.800781 59.648438 18.800781 41.390625 0 89.519531-31.65625 89.519531-72.480469v-87.925781c58.023438-4.128906 104-52.539062 104-111.59375 0-61.761719-50.238281-112-112-112-30.585938 0-59.175781 12.480469-80 33.878906-20.824219-21.398437-49.414062-33.878906-80-33.878906-61.761719 0-112 50.238281-112 112 0 56.34375 41.863281 102.976562 96.28125 110.734375l.03125 69.851563zm94.167969 53.199219c-12.832031 0-29.425781-5.367188-42.242188-13.664062-12.652343-8.214844-19.910156-17.902344-19.910156-26.574219v-.082031h119.664063c-.175782 20.417968-32.992188 40.320312-57.511719 40.320312zm89.519531-160.40625v-55.59375c0-8.832031-7.167969-16-16-16s-16 7.167969-16 16v143.679688h-119.695312l-.066407-143.382813c-.007812-8.832031-7.167969-15.976563-16-15.976563-.007812 0-.015625 0-.023437 0-8.832032.007813-15.984375 7.175782-15.976563 16.023438l.027344 54.082031c-36.601563-7.328125-64.265625-39.707031-64.265625-78.425781 0-44.113281 35.886719-80 80-80 26.9375 0 51.847656 13.375 66.648438 35.785156 0 .007813.007812.007813.007812.015625.582031.886719 1.265625 1.71875 2.03125 2.488281.761719.765626 1.59375 1.4375 2.472656 2.023438.007813 0 .007813.007812.015625.015625.144531.097656.304688.144531.457031.238281.75.464844 1.519532.890625 2.328126 1.21875.445312.183594.902343.277344 1.359374.414063.535157.160156 1.054688.359375 1.601563.464843.519531.105469 1.039063.121094 1.558594.167969.503906.046875 1.007812.128907 1.519531.128907s1.015625-.082032 1.527344-.128907c.519531-.046875 1.03125-.0625 1.542968-.167969.578126-.113281 1.128907-.3125 1.699219-.488281.421875-.136719.847657-.214843 1.261719-.382812.9375-.386719 1.839844-.855469 2.703125-1.417969.027344-.015625.058594-.023438.089844-.046875.886719-.585937 1.726562-1.265625 2.503906-2.039063.769531-.769531 1.433594-1.59375 2.015625-2.480468 0-.007813.007812-.007813.007812-.015625 14.800782-22.417969 39.710938-35.792969 66.648438-35.792969 44.113281 0 80 35.886719 80 80 0 41.40625-31.632812 75.566406-72 79.59375zm0 0" fill="#ff0000"/></svg>