<?xml version="1.0" encoding="iso-8859-1"?>
<!-- Generator: Adobe Illustrator 19.0.0, SVG Export Plug-In . SVG Version: 6.00 Build 0)  -->
<svg version="1.1" id="Layer_1" xmlns="http://www.w3.org/2000/svg" xmlns:xlink="http://www.w3.org/1999/xlink" x="0px" y="0px"
	 viewBox="0 0 186.204 186.204" style="enable-background:new 0 0 186.204 186.204;" xml:space="preserve">
<g>
	<g>
		<g>
			<path fill="#e84755" d="M95.517,0.799c-1.428-1.065-3.401-1.065-4.829,0c-24.681,18.399-40.01,53.768-40.01,92.302s15.329,73.903,40.009,92.302
				c0.714,0.533,1.566,0.801,2.415,0.801c0.848,0,1.701-0.268,2.415-0.801c24.68-18.399,40.009-53.768,40.009-92.302
				S120.197,19.198,95.517,0.799z M93.102,177.038c-21.255-17.393-34.343-49.203-34.343-83.937
				c0-34.734,13.087-66.544,34.343-83.937c21.255,17.393,34.343,49.203,34.343,83.937S114.357,159.645,93.102,177.038z"/>
			<path fill="#e84755" d="M90.687,51.391c-14.453,10.776-23.429,31.4-23.429,53.831c0,22.431,8.977,43.055,23.429,53.831
				c0.718,0.533,1.566,0.802,2.415,0.802c0.848,0,1.697-0.268,2.415-0.801c14.453-10.776,23.429-31.4,23.429-53.831
				c0-22.431-8.977-43.055-23.429-53.831C94.08,50.326,92.123,50.326,90.687,51.391z M110.865,105.222
				c0,18.608-6.739,35.657-17.764,45.392c-11.024-9.734-17.764-26.783-17.764-45.392s6.739-35.657,17.764-45.392
				C104.126,69.565,110.865,86.614,110.865,105.222z"/>
			<path fill="#e84755" d="M48.673,11.819l-6.854-4.281l-2.139,3.425C25.926,32.964,18.354,62.135,18.354,93.101s7.572,60.137,21.326,82.138
				l2.139,3.425l6.854-4.281l-2.143-3.429c-12.958-20.731-20.095-48.378-20.095-77.853c0-29.475,7.138-57.122,20.095-77.853
				L48.673,11.819z"/>
			<path fill="#e84755" d="M146.523,10.963l-2.139-3.425l-6.854,4.281l2.143,3.429c12.958,20.731,20.095,48.379,20.095,77.853
				s-7.138,57.122-20.095,77.853l-2.143,3.429l6.854,4.281l2.139-3.425c13.755-22.001,21.326-51.172,21.326-82.138
				S160.278,32.964,146.523,10.963z"/>
		</g>
	</g>
</g>
</svg>
